M48
; DRILL file KiCad 10.0.5 date 2026-10-07T17:30:50
; FORMAT={-:-/ absolute / metric / decimal}
; #@! TF.CreationDate,2026-10-07T17:30:50-03:00
; #@! TF.GenerationSoftware,Kicad,Pcbnew,10.0.5
; #@! TF.FileFunction,Plated,1,2,PTH
FMAT,2
METRIC
; #@! TA.AperFunction,Plated,PTH,ComponentDrill
T1C0.200
; #@! TA.AperFunction,Plated,PTH,ViaDrill
T2C0.300
; #@! TA.AperFunction,Plated,PTH,ComponentDrill
T3C0.600
; #@! TA.AperFunction,Plated,PTH,ComponentDrill
T4C1.000
; #@! TA.AperFunction,Plated,PTH,ComponentDrill
T5C3.000
%
G90
G05
T1
X60.675Y-45.975
X60.675Y-47.5
X61.438Y-45.212
X61.438Y-46.737
X61.438Y-48.262
X62.2Y-45.975
X62.2Y-47.5
X62.962Y-45.212
X62.962Y-46.737
X62.962Y-48.262
X63.725Y-45.975
X63.725Y-47.5
T2
X27.6Y-36.7
X27.8Y-40.1
X29.4Y-38.9
X29.5Y-43.2
X29.5Y-51.8
X29.9Y-46.8
X30.2Y-47.8
X31.3Y-60.5
X32.7Y-53.8
X33.2Y-57.85
X33.8Y-43.3
X34.0Y-42.4
X34.4Y-57.85
X34.8Y-52.0
X35.522Y-56.075
X39.1Y-47.0
X39.5Y-42.5
X40.322Y-58.428
X40.7Y-49.925
X41.4Y-54.9
X41.5Y-41.2
X42.7Y-55.1
X43.3Y-48.725
X44.3Y-42.6
X44.3Y-48.725
X44.4Y-33.0
X44.4Y-45.825
X44.4Y-54.2
X44.4Y-58.65
X45.7Y-43.4
X45.8Y-54.1
X46.3Y-45.8
X46.3Y-48.8
X46.436Y-58.0
X46.845Y-42.582
X46.849Y-44.225
X47.0Y-37.8
X47.5Y-45.425
X47.525Y-45.6
X47.525Y-45.6
X48.125Y-47.432
X48.153Y-45.825
X48.225Y-42.041
X49.242Y-56.325
X50.2Y-51.7
X50.3Y-57.2
X50.4Y-53.2
X50.825Y-41.8
X53.1Y-31.7
X54.3Y-54.9
X57.3Y-32.5
X58.1Y-54.9
X59.4Y-54.9
X60.2Y-32.3
X62.9Y-41.8
X62.962Y-46.737
X63.0Y-44.0
X63.7Y-26.3
X65.0Y-45.1
X65.4Y-53.3
X66.3Y-42.377
X66.38Y-37.4
X69.5Y-36.9
X70.0Y-54.8
T4
X33.62Y-60.2
X33.74Y-34.8
X36.16Y-60.2
X36.28Y-34.8
X38.7Y-60.2
X38.82Y-34.8
X41.24Y-60.2
X41.36Y-34.8
X43.1Y-26.3
X43.78Y-60.2
X43.9Y-34.8
X45.64Y-26.3
X46.32Y-60.2
X46.44Y-34.8
X48.18Y-26.3
X48.86Y-60.2
X48.98Y-34.8
X50.72Y-26.3
X51.4Y-60.2
X51.52Y-34.8
X53.26Y-26.3
X53.94Y-60.2
X54.06Y-34.8
X55.8Y-26.3
X56.48Y-60.2
X56.6Y-34.8
X58.34Y-26.3
X59.02Y-60.2
X59.14Y-34.8
X60.88Y-26.3
X61.56Y-60.2
X61.68Y-34.8
X64.1Y-60.2
X64.22Y-34.8
X66.64Y-60.2
X66.76Y-34.8
X69.18Y-60.2
X69.3Y-34.8
T5
X29.8Y-28.2
T3
G00X27.15Y-43.18
M15
G01X26.55Y-43.18
M16
G05
G00X27.15Y-51.82
M15
G01X26.55Y-51.82
M16
G05
G00X31.58Y-43.18
M15
G01X30.48Y-43.18
M16
G05
G00X31.58Y-51.82
M15
G01X30.48Y-51.82
M16
G05
M30
