%TF.GenerationSoftware,KiCad,Pcbnew,10.0.5*%
%TF.CreationDate,2026-10-07T17:30:52-03:00*%
%TF.ProjectId,project,70726f6a-6563-4742-9e6b-696361645f70,rev?*%
%TF.SameCoordinates,Original*%
%TF.FileFunction,Soldermask,Top*%
%TF.FilePolarity,Negative*%
%FSLAX46Y46*%
G04 Gerber Fmt 4.6, Leading zero omitted, Abs format (unit mm)*
G04 Created by KiCad (PCBNEW 10.0.5) date 2026-10-07 17:30:52*
%MOMM*%
%LPD*%
G01*
G04 APERTURE LIST*
G04 Aperture macros list*
%AMRoundRect*
0 Rectangle with rounded corners*
0 $1 Rounding radius*
0 $2 $3 $4 $5 $6 $7 $8 $9 X,Y pos of 4 corners*
0 Add a 4 corners polygon primitive as box body*
4,1,4,$2,$3,$4,$5,$6,$7,$8,$9,$2,$3,0*
0 Add four circle primitives for the rounded corners*
1,1,$1+$1,$2,$3*
1,1,$1+$1,$4,$5*
1,1,$1+$1,$6,$7*
1,1,$1+$1,$8,$9*
0 Add four rect primitives between the rounded corners*
20,1,$1+$1,$2,$3,$4,$5,0*
20,1,$1+$1,$4,$5,$6,$7,0*
20,1,$1+$1,$6,$7,$8,$9,0*
20,1,$1+$1,$8,$9,$2,$3,0*%
G04 Aperture macros list end*
%ADD10C,6.000000*%
%ADD11C,0.600000*%
%ADD12R,4.200000X4.200000*%
%ADD13R,0.900000X1.500000*%
%ADD14R,1.500000X0.900000*%
%ADD15RoundRect,0.200000X0.275000X-0.200000X0.275000X0.200000X-0.275000X0.200000X-0.275000X-0.200000X0*%
%ADD16RoundRect,0.200000X-0.275000X0.200000X-0.275000X-0.200000X0.275000X-0.200000X0.275000X0.200000X0*%
%ADD17RoundRect,0.225000X-0.225000X-0.250000X0.225000X-0.250000X0.225000X0.250000X-0.225000X0.250000X0*%
%ADD18RoundRect,0.200000X-0.200000X-0.275000X0.200000X-0.275000X0.200000X0.275000X-0.200000X0.275000X0*%
%ADD19RoundRect,0.225000X-0.250000X0.225000X-0.250000X-0.225000X0.250000X-0.225000X0.250000X0.225000X0*%
%ADD20C,0.650000*%
%ADD21RoundRect,0.150000X-0.575000X0.150000X-0.575000X-0.150000X0.575000X-0.150000X0.575000X0.150000X0*%
%ADD22RoundRect,0.075000X-0.650000X0.075000X-0.650000X-0.075000X0.650000X-0.075000X0.650000X0.075000X0*%
%ADD23O,2.100000X1.000000*%
%ADD24O,1.600000X1.000000*%
%ADD25R,1.700000X1.700000*%
%ADD26C,1.700000*%
%ADD27RoundRect,0.150000X-0.150000X0.587500X-0.150000X-0.587500X0.150000X-0.587500X0.150000X0.587500X0*%
%ADD28RoundRect,0.200000X0.200000X0.800000X-0.200000X0.800000X-0.200000X-0.800000X0.200000X-0.800000X0*%
%ADD29RoundRect,0.225000X0.250000X-0.225000X0.250000X0.225000X-0.250000X0.225000X-0.250000X-0.225000X0*%
%ADD30RoundRect,0.200000X0.200000X0.275000X-0.200000X0.275000X-0.200000X-0.275000X0.200000X-0.275000X0*%
%ADD31RoundRect,0.250000X-0.445000X0.457500X-0.445000X-0.457500X0.445000X-0.457500X0.445000X0.457500X0*%
%ADD32RoundRect,0.218750X-0.218750X-0.256250X0.218750X-0.256250X0.218750X0.256250X-0.218750X0.256250X0*%
%ADD33RoundRect,0.375000X0.375000X-0.625000X0.375000X0.625000X-0.375000X0.625000X-0.375000X-0.625000X0*%
%ADD34RoundRect,0.500000X1.400000X-0.500000X1.400000X0.500000X-1.400000X0.500000X-1.400000X-0.500000X0*%
%ADD35RoundRect,0.225000X0.225000X0.250000X-0.225000X0.250000X-0.225000X-0.250000X0.225000X-0.250000X0*%
%ADD36RoundRect,0.225000X0.375000X-0.225000X0.375000X0.225000X-0.375000X0.225000X-0.375000X-0.225000X0*%
%ADD37RoundRect,0.150000X0.150000X-0.587500X0.150000X0.587500X-0.150000X0.587500X-0.150000X-0.587500X0*%
%ADD38RoundRect,0.150000X0.150000X-0.825000X0.150000X0.825000X-0.150000X0.825000X-0.150000X-0.825000X0*%
%ADD39RoundRect,0.200000X-0.200000X-0.800000X0.200000X-0.800000X0.200000X0.800000X-0.200000X0.800000X0*%
G04 APERTURE END LIST*
D10*
%TO.C,REF\u002A\u002A*%
X29800000Y-28200000D03*
%TD*%
D11*
%TO.C,U2*%
X61437500Y-48262500D03*
X62962500Y-48262500D03*
X60675000Y-47500000D03*
X62200000Y-47500000D03*
X63725000Y-47500000D03*
X61437500Y-46737500D03*
D12*
X62200000Y-46737500D03*
D11*
X62962500Y-46737500D03*
X60675000Y-45975000D03*
X62200000Y-45975000D03*
X63725000Y-45975000D03*
X61437500Y-45212500D03*
X62962500Y-45212500D03*
D13*
X69540000Y-56167500D03*
X68270000Y-56167500D03*
X67000000Y-56167500D03*
X65730000Y-56167500D03*
X64460000Y-56167500D03*
X63190000Y-56167500D03*
X61920000Y-56167500D03*
X60650000Y-56167500D03*
X59380000Y-56167500D03*
X58110000Y-56167500D03*
X56840000Y-56167500D03*
X55570000Y-56167500D03*
X54300000Y-56167500D03*
X53030000Y-56167500D03*
D14*
X51780000Y-53137500D03*
X51780000Y-51867500D03*
X51780000Y-50597500D03*
X51780000Y-49327500D03*
X51780000Y-48057500D03*
X51780000Y-46787500D03*
X51780000Y-45517500D03*
X51780000Y-44247500D03*
X51780000Y-42977500D03*
X51780000Y-41707500D03*
D13*
X53030000Y-38667500D03*
X54300000Y-38667500D03*
X55570000Y-38667500D03*
X56840000Y-38667500D03*
X58110000Y-38667500D03*
X59380000Y-38667500D03*
X60650000Y-38667500D03*
X61920000Y-38667500D03*
X63190000Y-38667500D03*
X64460000Y-38667500D03*
X65730000Y-38667500D03*
X67000000Y-38667500D03*
X68270000Y-38667500D03*
X69540000Y-38667500D03*
%TD*%
D15*
%TO.C,R2*%
X34200000Y-46925000D03*
X34200000Y-45275000D03*
%TD*%
D16*
%TO.C,R3*%
X34200000Y-48275000D03*
X34200000Y-49925000D03*
%TD*%
D17*
%TO.C,C4*%
X47600000Y-38800000D03*
X49150000Y-38800000D03*
%TD*%
D18*
%TO.C,R5*%
X47550000Y-40500000D03*
X49200000Y-40500000D03*
%TD*%
D19*
%TO.C,C8*%
X32700000Y-55425000D03*
X32700000Y-56975000D03*
%TD*%
D20*
%TO.C,J1*%
X30500000Y-44610000D03*
X30500000Y-50390000D03*
D21*
X31945000Y-44250000D03*
X31945000Y-45050000D03*
D22*
X31945000Y-46250000D03*
X31945000Y-47250000D03*
X31945000Y-47750000D03*
X31945000Y-48750000D03*
D21*
X31945000Y-49950000D03*
X31945000Y-50750000D03*
X31945000Y-50750000D03*
X31945000Y-49950000D03*
D22*
X31945000Y-49250000D03*
X31945000Y-48250000D03*
X31945000Y-46750000D03*
X31945000Y-45750000D03*
D21*
X31945000Y-45050000D03*
X31945000Y-44250000D03*
D23*
X31030000Y-43180000D03*
D24*
X26850000Y-43180000D03*
D23*
X31030000Y-51820000D03*
D24*
X26850000Y-51820000D03*
%TD*%
D25*
%TO.C,J3*%
X33620000Y-60200000D03*
D26*
X36160000Y-60200000D03*
X38700000Y-60200000D03*
X41240000Y-60200000D03*
X43780000Y-60200000D03*
X46320000Y-60200000D03*
X48860000Y-60200000D03*
X51400000Y-60200000D03*
X53940000Y-60200000D03*
X56480000Y-60200000D03*
X59020000Y-60200000D03*
X61560000Y-60200000D03*
X64100000Y-60200000D03*
X66640000Y-60200000D03*
X69180000Y-60200000D03*
%TD*%
D27*
%TO.C,Q1*%
X49250000Y-49325000D03*
X47350000Y-49325000D03*
X48300000Y-51200000D03*
%TD*%
D28*
%TO.C,RST*%
X30700000Y-38900000D03*
X26500000Y-38900000D03*
%TD*%
D29*
%TO.C,C7*%
X33000000Y-39675000D03*
X33000000Y-38125000D03*
%TD*%
D30*
%TO.C,R4*%
X39125000Y-48200000D03*
X37475000Y-48200000D03*
%TD*%
D31*
%TO.C,C5*%
X45300000Y-38547500D03*
X45300000Y-41252500D03*
%TD*%
D32*
%TO.C,D3*%
X47587500Y-42200000D03*
X49162500Y-42200000D03*
%TD*%
D25*
%TO.C,J4*%
X60880000Y-26300000D03*
D26*
X58340000Y-26300000D03*
X55800000Y-26300000D03*
X53260000Y-26300000D03*
X50720000Y-26300000D03*
X48180000Y-26300000D03*
X45640000Y-26300000D03*
X43100000Y-26300000D03*
%TD*%
D32*
%TO.C,D4*%
X47525000Y-45600000D03*
X49100000Y-45600000D03*
%TD*%
D33*
%TO.C,U3*%
X38100000Y-45150000D03*
X40400000Y-45150000D03*
D34*
X40400000Y-38850000D03*
D33*
X42700000Y-45150000D03*
%TD*%
D35*
%TO.C,C3*%
X49075000Y-47300000D03*
X47525000Y-47300000D03*
%TD*%
D36*
%TO.C,D2*%
X35400000Y-41550000D03*
X35400000Y-38250000D03*
%TD*%
D29*
%TO.C,C6*%
X34300000Y-56975000D03*
X34300000Y-55425000D03*
%TD*%
D37*
%TO.C,Q2*%
X47350000Y-55337500D03*
X49250000Y-55337500D03*
X48300000Y-53462500D03*
%TD*%
D18*
%TO.C,R8*%
X47475000Y-57300000D03*
X49125000Y-57300000D03*
%TD*%
D25*
%TO.C,J2*%
X33740000Y-34800000D03*
D26*
X36280000Y-34800000D03*
X38820000Y-34800000D03*
X41360000Y-34800000D03*
X43900000Y-34800000D03*
X46440000Y-34800000D03*
X48980000Y-34800000D03*
X51520000Y-34800000D03*
X54060000Y-34800000D03*
X56600000Y-34800000D03*
X59140000Y-34800000D03*
X61680000Y-34800000D03*
X64220000Y-34800000D03*
X66760000Y-34800000D03*
X69300000Y-34800000D03*
%TD*%
D18*
%TO.C,R9*%
X41675000Y-48200000D03*
X43325000Y-48200000D03*
%TD*%
%TO.C,R6*%
X47550000Y-43900000D03*
X49200000Y-43900000D03*
%TD*%
D38*
%TO.C,U1*%
X36255000Y-56775000D03*
X37525000Y-56775000D03*
X38795000Y-56775000D03*
X40065000Y-56775000D03*
X41335000Y-56775000D03*
X42605000Y-56775000D03*
X43875000Y-56775000D03*
X45145000Y-56775000D03*
X45145000Y-51825000D03*
X43875000Y-51825000D03*
X42605000Y-51825000D03*
X41335000Y-51825000D03*
X40065000Y-51825000D03*
X38795000Y-51825000D03*
X37525000Y-51825000D03*
X36255000Y-51825000D03*
%TD*%
D39*
%TO.C,BOOT*%
X26800000Y-55400000D03*
X31000000Y-55400000D03*
%TD*%
M02*
