%TF.GenerationSoftware,KiCad,Pcbnew,10.0.5*%
%TF.CreationDate,2026-10-07T17:30:52-03:00*%
%TF.ProjectId,project,70726f6a-6563-4742-9e6b-696361645f70,rev?*%
%TF.SameCoordinates,Original*%
%TF.FileFunction,Copper,L2,Bot*%
%TF.FilePolarity,Positive*%
%FSLAX46Y46*%
G04 Gerber Fmt 4.6, Leading zero omitted, Abs format (unit mm)*
G04 Created by KiCad (PCBNEW 10.0.5) date 2026-10-07 17:30:52*
%MOMM*%
%LPD*%
G01*
G04 APERTURE LIST*
%TA.AperFunction,ComponentPad*%
%ADD10C,6.000000*%
%TD*%
%TA.AperFunction,HeatsinkPad*%
%ADD11C,0.600000*%
%TD*%
%TA.AperFunction,ComponentPad*%
%ADD12O,2.100000X1.000000*%
%TD*%
%TA.AperFunction,ComponentPad*%
%ADD13O,1.600000X1.000000*%
%TD*%
%TA.AperFunction,ComponentPad*%
%ADD14R,1.700000X1.700000*%
%TD*%
%TA.AperFunction,ComponentPad*%
%ADD15C,1.700000*%
%TD*%
%TA.AperFunction,ViaPad*%
%ADD16C,0.600000*%
%TD*%
%TA.AperFunction,Conductor*%
%ADD17C,0.200000*%
%TD*%
%TA.AperFunction,Conductor*%
%ADD18C,0.300000*%
%TD*%
G04 APERTURE END LIST*
D10*
%TO.P,REF\u002A\u002A,1*%
%TO.N,N/C*%
X29800000Y-28200000D03*
%TD*%
D11*
%TO.P,U2,39,GND_39*%
%TO.N,GND*%
X61437500Y-48262500D03*
X62962500Y-48262500D03*
X60675000Y-47500000D03*
X62200000Y-47500000D03*
X63725000Y-47500000D03*
X61437500Y-46737500D03*
X62962500Y-46737500D03*
X60675000Y-45975000D03*
X62200000Y-45975000D03*
X63725000Y-45975000D03*
X61437500Y-45212500D03*
X62962500Y-45212500D03*
%TD*%
D12*
%TO.P,J1,SH,SHIELD_SH*%
%TO.N,GND*%
X31030000Y-43180000D03*
D13*
X26850000Y-43180000D03*
D12*
X31030000Y-51820000D03*
D13*
X26850000Y-51820000D03*
%TD*%
D14*
%TO.P,J3,1,Pin_1_1*%
%TO.N,/3.3V*%
X33620000Y-60200000D03*
D15*
%TO.P,J3,2,Pin_2_2*%
%TO.N,GND*%
X36160000Y-60200000D03*
%TO.P,J3,3,Pin_3_3*%
%TO.N,/D15*%
X38700000Y-60200000D03*
%TO.P,J3,4,Pin_4_4*%
%TO.N,/D2*%
X41240000Y-60200000D03*
%TO.P,J3,5,Pin_5_5*%
%TO.N,/D4*%
X43780000Y-60200000D03*
%TO.P,J3,6,Pin_6_6*%
%TO.N,/RXD2*%
X46320000Y-60200000D03*
%TO.P,J3,7,Pin_7_7*%
%TO.N,/TXD2*%
X48860000Y-60200000D03*
%TO.P,J3,8,Pin_8_8*%
%TO.N,/D5*%
X51400000Y-60200000D03*
%TO.P,J3,9,Pin_9_9*%
%TO.N,/D18*%
X53940000Y-60200000D03*
%TO.P,J3,10,Pin_10_10*%
%TO.N,/D19*%
X56480000Y-60200000D03*
%TO.P,J3,11,Pin_11_11*%
%TO.N,/D21*%
X59020000Y-60200000D03*
%TO.P,J3,12,Pin_12_12*%
%TO.N,/RXD*%
X61560000Y-60200000D03*
%TO.P,J3,13,Pin_13_13*%
%TO.N,/TXD*%
X64100000Y-60200000D03*
%TO.P,J3,14,Pin_14_14*%
%TO.N,/D22*%
X66640000Y-60200000D03*
%TO.P,J3,15,Pin_15_15*%
%TO.N,/D23*%
X69180000Y-60200000D03*
%TD*%
D14*
%TO.P,J4,1,Pin_1_1*%
%TO.N,GND*%
X60880000Y-26300000D03*
D15*
%TO.P,J4,2,Pin_2_2*%
%TO.N,/3.3V*%
X58340000Y-26300000D03*
%TO.P,J4,3,Pin_3_3*%
%TO.N,/D18*%
X55800000Y-26300000D03*
%TO.P,J4,4,Pin_4_4*%
%TO.N,/D23*%
X53260000Y-26300000D03*
%TO.P,J4,5,Pin_5_5*%
%TO.N,/D2*%
X50720000Y-26300000D03*
%TO.P,J4,6,Pin_6_6*%
%TO.N,/D4*%
X48180000Y-26300000D03*
%TO.P,J4,7,Pin_7_7*%
%TO.N,/D5*%
X45640000Y-26300000D03*
%TO.P,J4,8,Pin_8_8*%
%TO.N,/3.3V*%
X43100000Y-26300000D03*
%TD*%
D14*
%TO.P,J2,1,Pin_1_1*%
%TO.N,+5V*%
X33740000Y-34800000D03*
D15*
%TO.P,J2,2,Pin_2_2*%
%TO.N,GND*%
X36280000Y-34800000D03*
%TO.P,J2,3,Pin_3_3*%
%TO.N,/D13*%
X38820000Y-34800000D03*
%TO.P,J2,4,Pin_4_4*%
%TO.N,/D12*%
X41360000Y-34800000D03*
%TO.P,J2,5,Pin_5_5*%
%TO.N,/D14*%
X43900000Y-34800000D03*
%TO.P,J2,6,Pin_6_6*%
%TO.N,/D27*%
X46440000Y-34800000D03*
%TO.P,J2,7,Pin_7_7*%
%TO.N,/D26*%
X48980000Y-34800000D03*
%TO.P,J2,8,Pin_8_8*%
%TO.N,/D25*%
X51520000Y-34800000D03*
%TO.P,J2,9,Pin_9_9*%
%TO.N,/D33*%
X54060000Y-34800000D03*
%TO.P,J2,10,Pin_10_10*%
%TO.N,/D32*%
X56600000Y-34800000D03*
%TO.P,J2,11,Pin_11_11*%
%TO.N,/D35*%
X59140000Y-34800000D03*
%TO.P,J2,12,Pin_12_12*%
%TO.N,/D34*%
X61680000Y-34800000D03*
%TO.P,J2,13,Pin_13_13*%
%TO.N,/VN*%
X64220000Y-34800000D03*
%TO.P,J2,14,Pin_14_14*%
%TO.N,/VP*%
X66760000Y-34800000D03*
%TO.P,J2,15,Pin_15_15*%
%TO.N,/EN*%
X69300000Y-34800000D03*
%TD*%
D16*
%TO.N,+5V*%
X34000000Y-42400000D03*
X27600000Y-36700000D03*
%TO.N,+3.3VA*%
X34800000Y-52000000D03*
X46435879Y-58000000D03*
%TO.N,GND*%
X48125000Y-47432253D03*
X33800000Y-43300000D03*
X31300000Y-60500000D03*
X69500000Y-36900000D03*
X50825000Y-41800000D03*
X65000000Y-45100000D03*
X47525000Y-45600000D03*
X29400000Y-38900000D03*
X47500000Y-45425000D03*
X29500000Y-51800000D03*
X48152919Y-45825000D03*
X63700000Y-26300000D03*
X62900000Y-41800000D03*
X70000000Y-54800000D03*
X47525000Y-45600000D03*
X34400000Y-57850000D03*
X35522224Y-56075000D03*
X62962500Y-46737500D03*
X65400000Y-53300000D03*
X29500000Y-43200000D03*
X48225000Y-42040575D03*
X63000000Y-44000000D03*
X44300000Y-42600000D03*
X39500000Y-42500000D03*
X32700000Y-53800000D03*
X66300000Y-42377500D03*
X46844522Y-42582108D03*
%TO.N,+3.3VA*%
X41500000Y-41200000D03*
X47000000Y-37800000D03*
%TO.N,/DTR*%
X45700000Y-43400000D03*
X45800000Y-54100000D03*
%TO.N,/EN*%
X27800000Y-40100000D03*
X66380000Y-37400000D03*
X40700000Y-49925000D03*
X50300000Y-57200000D03*
X50200000Y-51700000D03*
%TO.N,/D2*%
X44300000Y-48725000D03*
X50400000Y-53200000D03*
X44400000Y-33000000D03*
X43300000Y-48725000D03*
%TO.N,/IO0*%
X49241894Y-56325000D03*
X44400000Y-58650000D03*
X40321765Y-58428235D03*
X33200000Y-57850000D03*
%TO.N,/D4*%
X54300000Y-54900000D03*
X53100000Y-31700000D03*
%TO.N,/D5*%
X58100000Y-54900000D03*
X57300000Y-32500000D03*
%TO.N,/D18*%
X60200000Y-32300000D03*
X59400000Y-54900000D03*
%TO.N,/USB_D+*%
X30200000Y-47800000D03*
X42700000Y-55100000D03*
%TO.N,/USB_D-*%
X41400000Y-54900000D03*
X29900000Y-46800000D03*
%TO.N,/RTS*%
X46300000Y-45800000D03*
X46300000Y-48800000D03*
%TO.N,Net-(D3-A)*%
X44400000Y-45825000D03*
X39100000Y-47000000D03*
%TO.N,Net-(Q2-B)*%
X46848527Y-44225000D03*
X44400000Y-54200000D03*
%TD*%
%TO.N,+5V*%
D17*
X33980000Y-42380000D02*
X34000000Y-42400000D01*
X27200000Y-37100000D02*
X27200000Y-40348529D01*
X27600000Y-36700000D02*
X27200000Y-37100000D01*
X29231471Y-42380000D02*
X33980000Y-42380000D01*
X27200000Y-40348529D02*
X29231471Y-42380000D01*
%TO.N,+3.3VA*%
X40921765Y-58121765D02*
X34800000Y-52000000D01*
X40921765Y-58676764D02*
X40921765Y-58121765D01*
X40570294Y-59028235D02*
X40921765Y-58676764D01*
X38005419Y-59028235D02*
X40570294Y-59028235D01*
X37310000Y-59723654D02*
X38005419Y-59028235D01*
X37310000Y-60676346D02*
X37310000Y-59723654D01*
X37983654Y-61350000D02*
X37310000Y-60676346D01*
X41716346Y-61350000D02*
X37983654Y-61350000D01*
X42390000Y-60676346D02*
X41716346Y-61350000D01*
X42390000Y-59811471D02*
X42390000Y-60676346D01*
X46435879Y-58000000D02*
X44201471Y-58000000D01*
X44201471Y-58000000D02*
X42390000Y-59811471D01*
%TO.N,GND*%
X48465575Y-41800000D02*
X50825000Y-41800000D01*
D18*
X33800000Y-43300000D02*
X31150000Y-43300000D01*
D17*
X46844522Y-42582108D02*
X47525000Y-43262586D01*
D18*
X62900000Y-41800000D02*
X62900000Y-43900000D01*
X62900000Y-43900000D02*
X63000000Y-44000000D01*
X44200000Y-42500000D02*
X44300000Y-42600000D01*
X40700000Y-42500000D02*
X44200000Y-42500000D01*
X42560000Y-33920761D02*
X42560000Y-39220761D01*
X32420000Y-59000000D02*
X34960000Y-59000000D01*
X32180000Y-38900000D02*
X36280000Y-34800000D01*
X48152919Y-47404334D02*
X48125000Y-47432253D01*
X66300000Y-42377500D02*
X66300000Y-43800000D01*
X68100000Y-30700000D02*
X63700000Y-26300000D01*
X31150000Y-43300000D02*
X31030000Y-43180000D01*
X29400000Y-38900000D02*
X32180000Y-38900000D01*
X42560000Y-39220761D02*
X40700000Y-41080761D01*
X40700000Y-41080761D02*
X40700000Y-42500000D01*
D17*
X47525000Y-43262586D02*
X47525000Y-45600000D01*
D18*
X32700000Y-53490000D02*
X31030000Y-51820000D01*
X68100000Y-35500000D02*
X68100000Y-30700000D01*
X31300000Y-60120000D02*
X32420000Y-59000000D01*
X29500000Y-51800000D02*
X26870000Y-51800000D01*
X47640000Y-34302943D02*
X45687057Y-32350000D01*
X45687057Y-32350000D02*
X44130761Y-32350000D01*
X48152919Y-45825000D02*
X48152919Y-47404334D01*
D17*
X48225000Y-42040575D02*
X48465575Y-41800000D01*
D18*
X48050000Y-44875000D02*
X48050000Y-35707057D01*
X34960000Y-58410000D02*
X34400000Y-57850000D01*
X31300000Y-60500000D02*
X31300000Y-60120000D01*
X32700000Y-53800000D02*
X32700000Y-53490000D01*
X29500000Y-43200000D02*
X26870000Y-43200000D01*
X47640000Y-35297057D02*
X47640000Y-34302943D01*
X66300000Y-43800000D02*
X65000000Y-45100000D01*
X35522224Y-56075000D02*
X34960000Y-56637224D01*
X26870000Y-43200000D02*
X26850000Y-43180000D01*
X47500000Y-45425000D02*
X48050000Y-44875000D01*
X39500000Y-42500000D02*
X40700000Y-42500000D01*
X70000000Y-54800000D02*
X68500000Y-53300000D01*
X34960000Y-59000000D02*
X34960000Y-58410000D01*
X68500000Y-53300000D02*
X65400000Y-53300000D01*
X44130761Y-32350000D02*
X42560000Y-33920761D01*
X26870000Y-51800000D02*
X26850000Y-51820000D01*
X34960000Y-56637224D02*
X34960000Y-59000000D01*
X69500000Y-36900000D02*
X68100000Y-35500000D01*
X48050000Y-35707057D02*
X47640000Y-35297057D01*
X34960000Y-59000000D02*
X36160000Y-60200000D01*
%TO.N,+3.3VA*%
D17*
X44900000Y-37800000D02*
X41500000Y-41200000D01*
X47000000Y-37800000D02*
X44900000Y-37800000D01*
%TO.N,/DTR*%
X45700000Y-43400000D02*
X45800000Y-43500000D01*
X45800000Y-45451471D02*
X45700000Y-45551471D01*
X45800000Y-46148529D02*
X45800000Y-48451471D01*
X45700000Y-49048529D02*
X45800000Y-49148529D01*
X45800000Y-48451471D02*
X45700000Y-48551471D01*
X45800000Y-43500000D02*
X45800000Y-45451471D01*
X45700000Y-45551471D02*
X45700000Y-46048529D01*
X45700000Y-46048529D02*
X45800000Y-46148529D01*
X45700000Y-48551471D02*
X45700000Y-49048529D01*
X45800000Y-49148529D02*
X45800000Y-54100000D01*
%TO.N,/EN*%
D18*
X55260000Y-54859239D02*
X54569239Y-55550000D01*
X62880000Y-34060761D02*
X60469239Y-31650000D01*
X55260000Y-33620761D02*
X55260000Y-54859239D01*
X37480000Y-46705000D02*
X37480000Y-43736926D01*
X51050000Y-54300000D02*
X51050000Y-56450000D01*
X40700000Y-49925000D02*
X37480000Y-46705000D01*
X52300000Y-55550000D02*
X51050000Y-54300000D01*
X50200000Y-51700000D02*
X51050000Y-52550000D01*
X51050000Y-56450000D02*
X50300000Y-57200000D01*
X37480000Y-43736926D02*
X33843074Y-40100000D01*
X57230761Y-31650000D02*
X55260000Y-33620761D01*
X54569239Y-55550000D02*
X52300000Y-55550000D01*
X60469239Y-31650000D02*
X57230761Y-31650000D01*
X64982943Y-37400000D02*
X62880000Y-35297057D01*
X33843074Y-40100000D02*
X27800000Y-40100000D01*
X66380000Y-37400000D02*
X64982943Y-37400000D01*
X62880000Y-35297057D02*
X62880000Y-34060761D01*
X51050000Y-52550000D02*
X51050000Y-54300000D01*
%TO.N,/D2*%
D17*
X45050000Y-33650000D02*
X45050000Y-35498529D01*
X44400000Y-33000000D02*
X45050000Y-33650000D01*
X50400000Y-53200000D02*
X48240000Y-53200000D01*
X47600000Y-37551471D02*
X47600000Y-40651471D01*
X47248529Y-37200000D02*
X47600000Y-37551471D01*
X43300000Y-58140000D02*
X41240000Y-60200000D01*
X45050000Y-35498529D02*
X46751471Y-37200000D01*
X45000000Y-43251471D02*
X45000000Y-48025000D01*
X43300000Y-48725000D02*
X43300000Y-58140000D01*
X48240000Y-53200000D02*
X41240000Y-60200000D01*
X47600000Y-40651471D02*
X45000000Y-43251471D01*
X45000000Y-48025000D02*
X44300000Y-48725000D01*
X46751471Y-37200000D02*
X47248529Y-37200000D01*
%TO.N,/IO0*%
D18*
X33200000Y-57850000D02*
X33200000Y-57477985D01*
X35252985Y-55425000D02*
X37318530Y-55425000D01*
X44400000Y-58650000D02*
X46916894Y-58650000D01*
X37318530Y-55425000D02*
X40321765Y-58428235D01*
X46916894Y-58650000D02*
X49241894Y-56325000D01*
X33200000Y-57477985D02*
X35252985Y-55425000D01*
%TO.N,/D4*%
D17*
X52910000Y-31890000D02*
X52910000Y-53510000D01*
X52910000Y-53510000D02*
X54300000Y-54900000D01*
X53100000Y-31700000D02*
X52910000Y-31890000D01*
%TO.N,/D5*%
X57750000Y-32950000D02*
X57750000Y-54550000D01*
X57300000Y-32500000D02*
X57750000Y-32950000D01*
X57750000Y-54550000D02*
X58100000Y-54900000D01*
%TO.N,/D18*%
X60290000Y-45511471D02*
X59400000Y-46401471D01*
X60290000Y-32390000D02*
X60290000Y-45511471D01*
X60200000Y-32300000D02*
X60290000Y-32390000D01*
X59400000Y-46401471D02*
X59400000Y-54900000D01*
%TO.N,/USB_D+*%
D18*
X42700000Y-55100000D02*
X36300000Y-48700000D01*
X30200000Y-48700000D02*
X30200000Y-47800000D01*
X36300000Y-48700000D02*
X30200000Y-48700000D01*
%TO.N,/USB_D-*%
X41400000Y-54900000D02*
X41400000Y-54507106D01*
X29550000Y-48757107D02*
X29550000Y-47150000D01*
X41400000Y-54507106D02*
X36092894Y-49200000D01*
X29550000Y-47150000D02*
X29900000Y-46800000D01*
X36092894Y-49200000D02*
X29992893Y-49200000D01*
X29992893Y-49200000D02*
X29550000Y-48757107D01*
%TO.N,/RTS*%
D17*
X46300000Y-45800000D02*
X46300000Y-48800000D01*
%TO.N,Net-(D3-A)*%
X44400000Y-45825000D02*
X43225000Y-47000000D01*
X43225000Y-47000000D02*
X39100000Y-47000000D01*
%TO.N,Net-(Q2-B)*%
X46900000Y-44276473D02*
X46848527Y-44225000D01*
X44400000Y-54200000D02*
X44900000Y-54700000D01*
X44900000Y-54700000D02*
X46048529Y-54700000D01*
X46048529Y-54700000D02*
X46900000Y-53848529D01*
X46900000Y-53848529D02*
X46900000Y-44276473D01*
%TD*%
M02*
